<?xml version="1.0" encoding="UTF-8"?>
<!DOCTYPE svg PUBLIC "-//W3C//DTD SVG 1.1//EN" "http://www.w3.org/Graphics/SVG/1.1/DTD/svg11.dtd">
<!-- Creator: CorelDRAW X7 -->
<svg xmlns="http://www.w3.org/2000/svg" xml:space="preserve" width="109.16mm" height="17.8335mm" version="1.1" style="shape-rendering:geometricPrecision; text-rendering:geometricPrecision; image-rendering:optimizeQuality; fill-rule:evenodd; clip-rule:evenodd"
viewBox="0 0 12354 2018"
 xmlns:xlink="http://www.w3.org/1999/xlink">
 <defs>
  <style type="text/css">
   <![CDATA[
    .fil2 {fill:#FF5E1A}
    .fil3 {fill:#FF5E1A}
    .fil0 {fill:#163762;fill-rule:nonzero}
    .fil1 {fill:#FF5E1A;fill-rule:nonzero}
   ]]>
  </style>
 </defs>
 <g id="Layer_x0020_1">
  <metadata id="CorelCorpID_0Corel-Layer"/>
  <g id="_333679160">
   <g>
    <g>
     <path class="fil0" d="M307 1109l-307 0 0 -561c0,-51 15,-92 45,-121 29,-29 69,-43 119,-43 29,0 56,2 83,6 26,4 46,7 60,10l0 709zm-147 46l0 -247 612 0c8,13 15,30 22,51 7,21 10,44 10,68 0,44 -10,76 -29,97 -20,21 -47,31 -81,31l-534 0zm4 -524l0 -247 677 0c8,12 15,29 22,50 7,22 10,45 10,69 0,44 -10,76 -29,97 -20,21 -47,31 -81,31l-599 0zm-164 358l309 0 0 623c-13,4 -32,8 -59,11 -27,4 -55,5 -84,5 -60,0 -103,-10 -128,-32 -25,-22 -38,-59 -38,-112l0 -495zm3377 -88l0 254 -301 0 0 -290c0,-38 9,-70 28,-97 18,-26 43,-49 76,-70 44,-27 98,-48 161,-64 63,-15 129,-23 198,-23 138,0 207,46 207,138 0,22 -3,42 -9,61 -6,19 -13,35 -21,49 -14,-3 -30,-5 -50,-7 -20,-2 -41,-3 -64,-3 -40,0 -81,4 -122,14 -40,9 -75,22 -103,38zm-301 177l301 6 0 528c-14,4 -33,8 -57,11 -24,4 -51,5 -79,5 -57,0 -99,-10 -125,-30 -27,-20 -40,-57 -40,-110l0 -410zm926 191l-12 -203 504 -79c-3,-38 -19,-73 -49,-106 -30,-32 -74,-49 -132,-49 -61,0 -112,21 -152,62 -41,42 -63,100 -65,176l10 140c12,75 44,128 95,159 52,32 112,48 183,48 57,0 110,-8 160,-24 50,-16 91,-33 122,-51 20,12 37,29 50,51 13,21 19,45 19,69 0,40 -16,74 -48,101 -31,27 -75,48 -132,61 -56,14 -120,21 -191,21 -105,0 -198,-20 -282,-59 -83,-40 -148,-98 -196,-177 -47,-78 -71,-177 -71,-294 0,-87 14,-162 42,-226 28,-63 65,-116 112,-157 46,-41 99,-72 158,-93 59,-20 120,-30 184,-30 93,0 175,19 244,56 70,37 125,88 164,151 39,64 59,138 59,221 0,42 -12,74 -35,96 -23,22 -55,35 -95,41l-646 95zm1753 61c0,99 -38,176 -112,232 -75,57 -183,85 -325,85 -111,0 -202,-17 -274,-49 -72,-33 -108,-81 -108,-144 0,-29 6,-53 18,-74 13,-21 28,-38 47,-50 38,22 82,42 133,60 51,18 109,27 174,27 99,0 148,-28 148,-85 0,-24 -9,-44 -26,-58 -18,-14 -47,-25 -88,-31l-85 -21c-108,-23 -189,-58 -243,-106 -53,-48 -80,-114 -80,-198 0,-95 38,-171 115,-227 76,-56 180,-84 310,-84 65,0 124,6 177,19 54,13 96,33 127,59 31,27 47,59 47,99 0,27 -6,50 -16,71 -11,20 -25,37 -43,50 -15,-9 -38,-19 -68,-30 -31,-11 -64,-20 -100,-26 -35,-7 -69,-11 -100,-11 -49,0 -87,7 -114,20 -27,13 -40,33 -40,60 0,17 7,33 23,45 16,13 43,24 82,32l81 20c121,27 208,66 260,117 53,51 80,117 80,198zm1342 -61l-12 -203 503 -79c-3,-38 -19,-73 -49,-106 -29,-32 -73,-49 -132,-49 -61,0 -111,21 -152,62 -41,42 -62,100 -65,176l10 140c12,75 44,128 96,159 51,32 112,48 182,48 57,0 111,-8 161,-24 50,-16 91,-33 122,-51 20,12 37,29 49,51 13,21 20,45 20,69 0,40 -16,74 -48,101 -32,27 -76,48 -132,61 -56,14 -120,21 -192,21 -104,0 -198,-20 -281,-59 -83,-40 -149,-98 -196,-177 -47,-78 -71,-177 -71,-294 0,-87 14,-162 42,-226 27,-63 64,-116 111,-157 47,-41 100,-72 159,-93 58,-20 120,-30 183,-30 94,0 175,19 245,56 70,37 124,88 163,151 40,64 59,138 59,221 0,42 -11,74 -34,96 -23,22 -55,35 -96,41l-645 95zm1360 152c31,0 62,-3 93,-9 30,-6 52,-13 66,-21l0 -195 -171 16c-46,3 -83,12 -110,29 -27,16 -40,40 -40,73 0,32 13,58 38,78 26,19 67,29 124,29zm-12 -812c141,0 253,29 337,88 84,59 126,150 126,273l0 461c0,34 -9,62 -26,83 -18,21 -40,39 -67,53 -41,25 -92,44 -152,58 -60,15 -129,22 -206,22 -138,0 -248,-27 -330,-82 -82,-54 -123,-134 -123,-241 0,-92 29,-163 86,-212 56,-50 141,-80 253,-91l271 -28 0 -25c0,-46 -18,-79 -54,-99 -36,-20 -87,-31 -154,-31 -51,0 -101,7 -151,19 -49,12 -94,26 -133,42 -16,-10 -30,-27 -42,-49 -11,-23 -17,-46 -17,-70 0,-57 31,-99 94,-124 39,-17 85,-28 137,-36 52,-7 102,-11 151,-11zm1096 967c-79,0 -154,-16 -222,-46 -68,-31 -123,-81 -164,-152 -42,-71 -62,-165 -62,-280 0,-107 21,-196 64,-269 42,-72 102,-127 179,-164 78,-37 167,-56 268,-56 74,0 142,10 204,29 63,20 113,41 148,64 24,17 44,36 59,58 14,23 22,51 22,85l0 637 -290 0 0 -603c-15,-8 -33,-15 -54,-22 -21,-7 -47,-10 -78,-10 -65,0 -119,20 -160,61 -41,40 -62,104 -62,190 0,95 20,160 58,196 39,36 87,54 145,54 45,0 82,-8 112,-23 30,-16 55,-33 77,-52l8 240c-28,17 -63,32 -103,44 -41,12 -90,19 -149,19zm212 28l0 -189 284 0 0 197c0,95 -22,172 -66,232 -44,59 -104,103 -179,132 -75,28 -159,42 -253,42 -70,0 -133,-6 -187,-18 -55,-12 -97,-28 -125,-47 -46,-30 -69,-71 -69,-126 0,-28 5,-53 17,-76 11,-22 25,-39 42,-50 36,22 79,41 130,56 50,16 102,24 158,24 76,0 136,-14 181,-42 44,-28 67,-73 67,-135zm519 -370l0 -146 301 0 0 144c0,63 16,107 48,134 32,27 77,41 135,41 36,0 67,-3 91,-10 24,-7 43,-14 55,-20l0 -289 302 0 0 325c0,33 -6,60 -19,83 -13,23 -33,44 -62,61 -43,27 -96,49 -159,64 -63,16 -133,24 -210,24 -96,0 -181,-15 -253,-43 -73,-28 -129,-73 -169,-133 -40,-60 -60,-138 -60,-235zm932 -54l-302 0 0 -536c13,-5 32,-9 57,-13 24,-4 51,-6 79,-6 58,0 101,10 127,30 26,19 39,57 39,112l0 413zm-631 0l-301 0 0 -536c13,-5 31,-9 55,-13 25,-4 51,-6 79,-6 59,0 101,10 127,30 27,19 40,57 40,112l0 413zm1005 89l-12 -203 503 -79c-2,-38 -18,-73 -48,-106 -30,-32 -74,-49 -132,-49 -61,0 -112,21 -153,62 -40,42 -62,100 -64,176l10 140c12,75 44,128 95,159 52,32 112,48 183,48 57,0 110,-8 160,-24 50,-16 91,-33 122,-51 20,12 37,29 50,51 13,21 19,45 19,69 0,40 -16,74 -48,101 -31,27 -75,48 -132,61 -56,14 -120,21 -191,21 -105,0 -198,-20 -282,-59 -83,-40 -148,-98 -196,-177 -47,-78 -71,-177 -71,-294 0,-87 14,-162 42,-226 28,-63 65,-116 112,-157 46,-41 99,-72 158,-93 59,-20 120,-30 184,-30 93,0 175,19 244,56 70,37 125,88 164,151 39,64 59,138 59,221 0,42 -12,74 -35,96 -23,22 -55,35 -95,41l-646 95z"/>
     <path class="fil1" d="M5968 759l308 0 0 843 -144 16c-50,0 -90,-15 -120,-44 -29,-30 -44,-70 -44,-120l0 -695zm164 859l0 -252 638 0c9,14 17,31 24,52 7,21 10,45 10,70 0,44 -9,76 -28,98 -19,21 -45,32 -79,32l-565 0zm144 -473l-308 0 0 -765c13,-3 34,-7 62,-11 27,-4 54,-6 80,-6 59,0 102,10 128,31 26,20 38,59 38,116l0 635z"/>
    </g>
    <g>
     <path class="fil2" d="M3480 116l14 -6 37 -37c23,-33 16,-22 26,-72 -150,-9 -152,57 -257,113 -47,26 -90,4 -149,-9 -98,-23 -83,-19 -129,39l67 65c25,24 9,2 26,30 -200,164 -155,-5 -217,111 167,137 397,-153 582,-234z"/>
     <path class="fil2" d="M2027 1156l108 113c-353,420 -1179,467 -1221,-243 -45,-690 744,-905 1287,-280l840 896 -478 7 -637 -753c-345,-421 -899,-172 -717,283 133,247 537,211 818,-23z"/>
     <polygon class="fil2" points="2931,416 2982,415 2475,951 2370,833 "/>
    </g>
   </g>
   <g>
    <g>
     <path class="fil0" d="M62 1611l247 -19 0 20c-13,4 -32,8 -59,11 -27,4 -55,5 -84,5 -44,0 -78,-5 -104,-17zm3014 -239l301 -23 0 263c-14,4 -33,8 -57,11 -24,4 -51,5 -79,5 -57,0 -99,-10 -125,-30 -27,-20 -40,-57 -40,-110l0 -116zm767 -60l287 -23c16,34 40,61 71,80 52,32 112,48 183,48 57,0 110,-8 160,-24 50,-16 91,-33 122,-51 20,12 37,29 50,51 13,21 19,45 19,69 0,40 -16,74 -48,101 -31,27 -75,48 -132,61 -56,14 -120,21 -191,21 -105,0 -198,-20 -282,-59 -83,-40 -148,-98 -196,-177 -17,-30 -32,-62 -43,-97zm1346 -107l515 -41c34,46 51,101 51,166 0,99 -38,176 -112,232 -75,57 -183,85 -325,85 -111,0 -202,-17 -274,-49 -72,-33 -108,-81 -108,-144 0,-29 6,-53 18,-74 13,-21 28,-38 47,-50 38,22 82,42 133,60 51,18 109,27 174,27 99,0 148,-28 148,-85 0,-24 -9,-44 -26,-58 -18,-14 -47,-25 -88,-31l-85 -21c-24,-5 -47,-11 -68,-17zm1722 -137l281 -22c-1,8 -2,16 -2,24l10 140c12,75 44,128 96,159 51,32 112,48 182,48 57,0 111,-8 161,-24 50,-16 91,-33 122,-51 20,12 37,29 49,51 13,21 20,45 20,69 0,40 -16,74 -48,101 -32,27 -76,48 -132,61 -56,14 -120,21 -192,21 -104,0 -198,-20 -281,-59 -83,-40 -149,-98 -196,-177 -47,-78 -71,-177 -71,-294 0,-16 0,-32 1,-47zm317 -25l642 -51c2,15 2,30 2,45 0,42 -11,74 -34,96 -23,22 -55,35 -96,41l-645 95 -12 -203 143 -23zm1382 -109l294 -23c3,19 4,39 4,59l0 461c0,34 -9,62 -26,83 -18,21 -40,39 -67,53 -41,25 -92,44 -152,58 -60,15 -129,22 -206,22 -138,0 -248,-27 -330,-82 -82,-54 -123,-134 -123,-241 0,-92 29,-163 86,-212 56,-50 141,-80 253,-91l271 -28 0 -25c0,-12 -2,-24 -4,-34zm516 -41l402 -32c-27,10 -52,26 -73,47 -41,40 -62,104 -62,190 0,95 20,160 58,196 39,36 87,54 145,54 45,0 82,-8 112,-23 30,-16 55,-33 77,-52l8 240c-28,17 -63,32 -103,44 -41,12 -90,19 -149,19 -79,0 -154,-16 -222,-46 -68,-31 -123,-81 -164,-152 -42,-71 -62,-165 -62,-280 0,-77 11,-146 33,-205zm539 -43l371 -29c0,7 1,15 1,24l0 637 -290 0 0 -603c-15,-8 -33,-15 -54,-22 -9,-3 -18,-5 -28,-7zm607 -48l301 -24 0 402 -301 0 0 -378zm630 -50l300 -24c2,12 2,25 2,39l0 413 -302 0 0 -428zm686 -54l526 -42c6,3 12,6 17,9 70,37 125,88 164,151 39,64 59,138 59,221 0,42 -12,74 -35,96 -23,22 -55,35 -95,41l-646 95 -12 -203 503 -79c-2,-38 -18,-73 -48,-106 -30,-32 -74,-49 -132,-49 -61,0 -112,21 -153,62 -40,42 -62,100 -64,176l10 140c12,75 44,128 95,159 52,32 112,48 183,48 57,0 110,-8 160,-24 50,-16 91,-33 122,-51 20,12 37,29 50,51 13,21 19,45 19,69 0,40 -16,74 -48,101 -31,27 -75,48 -132,61 -56,14 -120,21 -191,21 -105,0 -198,-20 -282,-59 -83,-40 -148,-98 -196,-177 -47,-78 -71,-177 -71,-294 0,-87 14,-162 42,-226 28,-63 65,-116 112,-157 13,-12 28,-24 43,-34zm-3131 723c31,0 62,-3 93,-9 30,-6 52,-13 66,-21l0 -195 -171 16c-46,3 -83,12 -110,29 -27,16 -40,40 -40,73 0,32 13,58 38,78 26,19 67,29 124,29zm1296 183l0 -189 284 0 0 197c0,95 -22,172 -66,232 -44,59 -104,103 -179,132 -75,28 -159,42 -253,42 -70,0 -133,-6 -187,-18 -55,-12 -97,-28 -125,-47 -46,-30 -69,-71 -69,-126 0,-28 5,-53 17,-76 11,-22 25,-39 42,-50 36,22 79,41 130,56 50,16 102,24 158,24 76,0 136,-14 181,-42 44,-28 67,-73 67,-135zm519 -370l0 -146 301 0 0 144c0,63 16,107 48,134 32,27 77,41 135,41 36,0 67,-3 91,-10 24,-7 43,-14 55,-20l0 -289 302 0 0 325c0,33 -6,60 -19,83 -13,23 -33,44 -62,61 -43,27 -96,49 -159,64 -63,16 -133,24 -210,24 -96,0 -181,-15 -253,-43 -73,-28 -129,-73 -169,-133 -40,-60 -60,-138 -60,-235z"/>
     <path class="fil1" d="M6276 1119l0 483 -144 16c-50,0 -90,-15 -120,-44 -29,-30 -44,-70 -44,-120l0 -311 0 2 308 0 0 -26zm-144 499l0 -252 638 0c9,14 17,31 24,52 7,21 10,45 10,70 0,44 -9,76 -28,98 -19,21 -45,32 -79,32l-565 0z"/>
    </g>
    <path class="fil2" d="M1889 1466c-216,117 -477,146 -675,54l675 -54zm919 -72l233 248 -478 7 -188 -221 433 -34z"/>
   </g>
   <g>
    <path class="fil1" d="M62 1611l247 -19 0 20c-13,4 -32,8 -59,11 -27,4 -55,5 -84,5 -44,0 -78,-5 -104,-17zm3014 -239l301 -23 0 263c-14,4 -33,8 -57,11 -24,4 -51,5 -79,5 -57,0 -99,-10 -125,-30 -27,-20 -40,-57 -40,-110l0 -116zm767 -60l287 -23c16,34 40,61 71,80 52,32 112,48 183,48 57,0 110,-8 160,-24 50,-16 91,-33 122,-51 20,12 37,29 50,51 13,21 19,45 19,69 0,40 -16,74 -48,101 -31,27 -75,48 -132,61 -56,14 -120,21 -191,21 -105,0 -198,-20 -282,-59 -83,-40 -148,-98 -196,-177 -17,-30 -32,-62 -43,-97zm1346 -107l515 -41c34,46 51,101 51,166 0,99 -38,176 -112,232 -75,57 -183,85 -325,85 -111,0 -202,-17 -274,-49 -72,-33 -108,-81 -108,-144 0,-29 6,-53 18,-74 13,-21 28,-38 47,-50 38,22 82,42 133,60 51,18 109,27 174,27 99,0 148,-28 148,-85 0,-24 -9,-44 -26,-58 -18,-14 -47,-25 -88,-31l-85 -21c-24,-5 -47,-11 -68,-17zm1722 -137l281 -22c-1,8 -2,16 -2,24l10 140c12,75 44,128 96,159 51,32 112,48 182,48 57,0 111,-8 161,-24 50,-16 91,-33 122,-51 20,12 37,29 49,51 13,21 20,45 20,69 0,40 -16,74 -48,101 -32,27 -76,48 -132,61 -56,14 -120,21 -192,21 -104,0 -198,-20 -281,-59 -83,-40 -149,-98 -196,-177 -47,-78 -71,-177 -71,-294 0,-16 0,-32 1,-47zm317 -25l642 -51c2,15 2,30 2,45 0,42 -11,74 -34,96 -23,22 -55,35 -96,41l-645 95 -12 -203 143 -23zm1382 -109l294 -23c3,19 4,39 4,59l0 461c0,34 -9,62 -26,83 -18,21 -40,39 -67,53 -41,25 -92,44 -152,58 -60,15 -129,22 -206,22 -138,0 -248,-27 -330,-82 -82,-54 -123,-134 -123,-241 0,-92 29,-163 86,-212 56,-50 141,-80 253,-91l271 -28 0 -25c0,-12 -2,-24 -4,-34zm516 -41l402 -32c-27,10 -52,26 -73,47 -41,40 -62,104 -62,190 0,95 20,160 58,196 39,36 87,54 145,54 45,0 82,-8 112,-23 30,-16 55,-33 77,-52l8 240c-28,17 -63,32 -103,44 -41,12 -90,19 -149,19 -79,0 -154,-16 -222,-46 -68,-31 -123,-81 -164,-152 -42,-71 -62,-165 -62,-280 0,-77 11,-146 33,-205zm539 -43l371 -29c0,7 1,15 1,24l0 637 -290 0 0 -603c-15,-8 -33,-15 -54,-22 -9,-3 -18,-5 -28,-7zm607 -48l301 -24 0 402 -301 0 0 -378zm630 -50l300 -24c2,12 2,25 2,39l0 413 -302 0 0 -428zm686 -54l526 -42c6,3 12,6 17,9 70,37 125,88 164,151 39,64 59,138 59,221 0,42 -12,74 -35,96 -23,22 -55,35 -95,41l-646 95 -12 -203 503 -79c-2,-38 -18,-73 -48,-106 -30,-32 -74,-49 -132,-49 -61,0 -112,21 -153,62 -40,42 -62,100 -64,176l10 140c12,75 44,128 95,159 52,32 112,48 183,48 57,0 110,-8 160,-24 50,-16 91,-33 122,-51 20,12 37,29 50,51 13,21 19,45 19,69 0,40 -16,74 -48,101 -31,27 -75,48 -132,61 -56,14 -120,21 -191,21 -105,0 -198,-20 -282,-59 -83,-40 -148,-98 -196,-177 -47,-78 -71,-177 -71,-294 0,-87 14,-162 42,-226 28,-63 65,-116 112,-157 13,-12 28,-24 43,-34zm-3131 723c31,0 62,-3 93,-9 30,-6 52,-13 66,-21l0 -195 -171 16c-46,3 -83,12 -110,29 -27,16 -40,40 -40,73 0,32 13,58 38,78 26,19 67,29 124,29zm1296 183l0 -189 284 0 0 197c0,95 -22,172 -66,232 -44,59 -104,103 -179,132 -75,28 -159,42 -253,42 -70,0 -133,-6 -187,-18 -55,-12 -97,-28 -125,-47 -46,-30 -69,-71 -69,-126 0,-28 5,-53 17,-76 11,-22 25,-39 42,-50 36,22 79,41 130,56 50,16 102,24 158,24 76,0 136,-14 181,-42 44,-28 67,-73 67,-135zm519 -370l0 -146 301 0 0 144c0,63 16,107 48,134 32,27 77,41 135,41 36,0 67,-3 91,-10 24,-7 43,-14 55,-20l0 -289 302 0 0 325c0,33 -6,60 -19,83 -13,23 -33,44 -62,61 -43,27 -96,49 -159,64 -63,16 -133,24 -210,24 -96,0 -181,-15 -253,-43 -73,-28 -129,-73 -169,-133 -40,-60 -60,-138 -60,-235z"/>
    <path class="fil1" d="M6276 1119l0 483 -144 16c-50,0 -90,-15 -120,-44 -29,-30 -44,-70 -44,-120l0 -311 0 2 308 0 0 -26zm-144 499l0 -252 638 0c9,14 17,31 24,52 7,21 10,45 10,70 0,44 -9,76 -28,98 -19,21 -45,32 -79,32l-565 0z"/>
   </g>
   <path class="fil3" d="M1889 1466c-216,117 -477,146 -675,54l675 -54zm919 -72l233 248 -478 7 -188 -221 433 -34z"/>
  </g>
 </g>
</svg>
