<?xml version="1.0" encoding="UTF-8"?>
<!DOCTYPE svg PUBLIC "-//W3C//DTD SVG 1.1//EN" "http://www.w3.org/Graphics/SVG/1.1/DTD/svg11.dtd">
<!-- Creator: CorelDRAW X7 -->
<svg xmlns="http://www.w3.org/2000/svg" xml:space="preserve" width="109.16mm" height="17.8335mm" version="1.1" style="shape-rendering:geometricPrecision; text-rendering:geometricPrecision; image-rendering:optimizeQuality; fill-rule:evenodd; clip-rule:evenodd"
viewBox="0 0 12238 1999"
 xmlns:xlink="http://www.w3.org/1999/xlink">
 <defs>
  <style type="text/css">
   <![CDATA[
    .fil1 {fill:#FEFEFE}
    .fil0 {fill:#FEFEFE;fill-rule:nonzero}
   ]]>
  </style>
 </defs>
 <g id="Layer_x0020_1">
  <metadata id="CorelCorpID_0Corel-Layer"/>
  <g id="_331912992">
   <g>
    <g>
     <path class="fil0" d="M304 1098l-304 0 0 -555c0,-51 15,-91 44,-120 30,-29 69,-43 119,-43 28,0 55,2 81,6 27,4 46,7 60,10l0 702zm-145 46l0 -245 605 0c8,13 16,31 23,51 6,21 10,44 10,68 0,43 -10,74 -30,95 -19,21 -46,31 -79,31l-529 0zm4 -519l0 -245 670 0c8,12 15,29 22,50 7,22 10,45 10,69 0,43 -10,75 -29,95 -20,21 -46,31 -80,31l-593 0zm-163 355l306 0 0 617c-12,4 -32,8 -59,11 -26,3 -54,5 -82,5 -60,0 -103,-11 -128,-32 -25,-22 -37,-58 -37,-111l0 -490zm3345 -87l0 251 -298 0 0 -287c0,-38 10,-70 28,-96 18,-26 43,-49 75,-69 44,-27 98,-48 160,-64 62,-15 128,-23 196,-23 137,0 205,46 205,137 0,22 -3,42 -9,60 -6,19 -13,35 -21,49 -13,-3 -30,-5 -49,-7 -20,-2 -41,-3 -64,-3 -40,0 -80,4 -120,14 -40,9 -75,22 -103,38zm-298 175l298 6 0 523c-13,4 -32,8 -56,11 -24,3 -50,5 -79,5 -56,0 -97,-10 -123,-30 -26,-20 -40,-56 -40,-109l0 -406zm918 189l-12 -201 499 -79c-3,-37 -19,-72 -49,-104 -29,-32 -73,-48 -131,-48 -60,0 -110,20 -150,61 -41,41 -62,99 -65,174l10 139c12,74 44,126 95,158 51,31 111,47 181,47 56,0 109,-8 159,-24 49,-16 90,-33 121,-50 20,12 36,28 49,50 13,21 19,44 19,68 0,40 -16,74 -47,101 -32,27 -75,47 -131,60 -56,14 -119,20 -190,20 -103,0 -196,-19 -279,-58 -82,-39 -147,-97 -194,-175 -47,-78 -70,-175 -70,-292 0,-86 13,-160 41,-223 27,-63 64,-115 111,-156 46,-41 98,-71 156,-91 59,-21 119,-31 182,-31 93,0 174,19 243,56 69,37 123,86 162,150 39,63 58,136 58,219 0,41 -11,73 -34,94 -23,22 -54,35 -95,41l-639 94zm1736 60c0,98 -37,175 -111,231 -74,55 -181,83 -322,83 -110,0 -200,-16 -271,-48 -71,-32 -107,-80 -107,-143 0,-28 6,-52 18,-73 12,-21 28,-37 46,-50 38,22 82,42 132,60 50,18 108,27 172,27 98,0 147,-28 147,-85 0,-24 -9,-43 -26,-57 -18,-14 -46,-24 -87,-31l-84 -20c-107,-23 -188,-58 -241,-106 -52,-47 -79,-113 -79,-196 0,-94 38,-169 114,-224 75,-56 178,-84 306,-84 65,0 123,7 176,19 53,13 95,33 126,59 31,26 46,58 46,97 0,27 -5,51 -16,71 -10,20 -24,37 -42,50 -15,-9 -37,-19 -67,-30 -30,-11 -63,-20 -99,-26 -35,-7 -69,-10 -99,-10 -49,0 -86,6 -113,19 -27,12 -40,32 -40,59 0,18 7,33 23,45 15,13 42,23 81,32l81 20c119,26 205,65 257,115 53,51 79,116 79,196zm1329 -60l-12 -201 499 -79c-3,-37 -19,-72 -48,-104 -30,-32 -73,-48 -131,-48 -60,0 -111,20 -151,61 -40,41 -61,99 -64,174l10 139c12,74 43,126 94,158 51,31 112,47 181,47 57,0 110,-8 159,-24 50,-16 90,-33 121,-50 20,12 37,28 49,50 13,21 19,44 19,68 0,40 -15,74 -47,101 -31,27 -75,47 -131,60 -55,14 -119,20 -190,20 -103,0 -196,-19 -278,-58 -83,-39 -147,-97 -194,-175 -47,-78 -71,-175 -71,-292 0,-86 14,-160 42,-223 27,-63 64,-115 110,-156 46,-41 99,-71 157,-91 58,-21 119,-31 182,-31 93,0 173,19 242,56 70,37 124,86 162,150 39,63 59,136 59,219 0,41 -12,73 -34,94 -23,22 -55,35 -95,41l-640 94zm1348 151c31,0 61,-3 92,-9 30,-6 52,-13 65,-21l0 -193 -169 16c-46,2 -82,12 -109,28 -26,16 -40,40 -40,72 0,33 13,58 38,78 26,19 67,29 123,29zm-12 -805c139,0 251,30 334,88 83,58 125,148 125,270l0 457c0,34 -9,61 -27,81 -17,21 -39,39 -66,54 -40,24 -90,43 -150,57 -59,14 -127,21 -204,21 -137,0 -246,-27 -327,-80 -81,-54 -121,-134 -121,-240 0,-91 28,-161 84,-210 56,-49 140,-79 251,-89l268 -28 0 -25c0,-45 -18,-78 -53,-98 -36,-20 -87,-30 -152,-30 -51,0 -101,6 -150,18 -49,12 -93,26 -132,42 -16,-11 -30,-27 -41,-49 -11,-22 -17,-46 -17,-70 0,-56 31,-97 92,-122 39,-16 85,-28 136,-36 52,-7 102,-11 150,-11zm1086 958c-79,0 -152,-15 -220,-45 -68,-31 -122,-81 -163,-151 -41,-71 -61,-163 -61,-277 0,-106 21,-195 63,-266 42,-72 102,-126 178,-163 77,-37 165,-56 266,-56 72,0 139,10 202,30 62,19 111,40 146,63 24,16 43,35 58,57 15,22 22,50 22,84l0 631 -288 0 0 -597c-14,-8 -32,-16 -53,-22 -21,-7 -47,-10 -77,-10 -65,0 -117,20 -158,60 -41,40 -62,103 -62,189 0,94 20,159 58,194 38,36 86,54 144,54 44,0 81,-8 110,-24 30,-15 55,-32 77,-51l8 237c-28,18 -63,33 -103,45 -40,12 -89,18 -147,18zm209 28l0 -187 282 0 0 195c0,94 -22,170 -65,229 -44,59 -103,103 -177,131 -75,28 -158,42 -251,42 -69,0 -132,-6 -186,-18 -54,-12 -95,-27 -124,-46 -45,-30 -68,-71 -68,-125 0,-28 6,-53 17,-75 12,-22 25,-39 41,-49 37,21 80,39 129,55 50,15 102,23 157,23 75,0 135,-14 179,-41 44,-28 66,-72 66,-134zm515 -366l0 -145 298 0 0 143c0,62 16,106 47,133 32,26 76,40 134,40 36,0 67,-3 91,-10 24,-7 42,-14 54,-20l0 -286 300 0 0 322c0,32 -7,60 -19,82 -13,23 -34,43 -62,61 -43,27 -95,48 -158,63 -62,16 -131,23 -208,23 -95,0 -179,-14 -250,-42 -72,-28 -128,-72 -167,-132 -40,-59 -60,-137 -60,-232zm924 -54l-300 0 0 -531c13,-4 32,-9 56,-13 24,-4 51,-6 79,-6 57,0 99,10 125,30 27,19 40,56 40,111l0 409zm-626 0l-298 0 0 -531c12,-4 31,-9 55,-13 24,-4 50,-6 78,-6 58,0 100,10 126,30 26,19 39,56 39,111l0 409zm996 88l-12 -201 499 -79c-3,-37 -19,-72 -49,-104 -29,-32 -73,-48 -130,-48 -61,0 -111,20 -151,61 -41,41 -62,99 -65,174l10 139c12,74 44,126 95,158 51,31 111,47 181,47 56,0 109,-8 159,-24 50,-16 90,-33 121,-50 20,12 36,28 49,50 13,21 19,44 19,68 0,40 -16,74 -47,101 -32,27 -75,47 -131,60 -56,14 -119,20 -190,20 -103,0 -196,-19 -279,-58 -82,-39 -147,-97 -194,-175 -47,-78 -70,-175 -70,-292 0,-86 14,-160 41,-223 27,-63 64,-115 111,-156 46,-41 98,-71 157,-91 58,-21 119,-31 182,-31 92,0 173,19 242,56 69,37 123,86 162,150 39,63 58,136 58,219 0,41 -11,73 -34,94 -23,22 -54,35 -94,41l-640 94z"/>
     <path class="fil0" d="M5912 752l306 0 0 835 -143 16c-50,0 -89,-15 -119,-44 -29,-30 -44,-69 -44,-119l0 -688zm163 851l0 -249 631 0c10,13 18,30 25,51 6,21 10,44 10,69 0,43 -10,75 -28,97 -19,21 -45,32 -79,32l-559 0zm143 -469l-306 0 0 -758c13,-3 34,-6 61,-10 28,-4 54,-6 80,-6 59,0 101,10 126,30 26,20 39,58 39,115l0 629z"/>
    </g>
    <g>
     <path class="fil1" d="M3447 115l14 -6 37 -37c23,-32 16,-21 26,-71 -148,-9 -151,57 -255,112 -47,25 -89,4 -147,-9 -97,-22 -83,-19 -129,39l67 64c25,24 9,2 26,30 -198,163 -154,-5 -215,110 166,135 393,-152 576,-232z"/>
     <path class="fil1" d="M2008 1145l107 112c-350,417 -1168,462 -1210,-240 -44,-684 737,-897 1276,-278l831 887 -473 8 -631 -746c-342,-418 -891,-171 -710,280 132,245 531,209 810,-23z"/>
     <polygon class="fil1" points="2903,412 2954,411 2452,942 2348,826 "/>
    </g>
   </g>
   <g>
    <g>
     <path class="fil0" d="M62 1596l244 -19 0 20c-12,4 -32,8 -59,11 -26,3 -54,5 -82,5 -44,0 -78,-6 -103,-17zm2985 -236l298 -24 0 261c-13,4 -32,8 -56,11 -24,3 -50,5 -79,5 -56,0 -97,-10 -123,-30 -26,-20 -40,-56 -40,-109l0 -114zm760 -61l284 -22c17,34 40,61 71,80 51,31 111,47 181,47 56,0 109,-8 159,-24 49,-16 90,-33 121,-50 20,12 36,28 49,50 13,21 19,44 19,68 0,40 -16,74 -47,101 -32,27 -75,47 -131,60 -56,14 -119,20 -190,20 -103,0 -196,-19 -279,-58 -82,-39 -147,-97 -194,-175 -18,-29 -32,-62 -43,-97zm1333 -105l510 -41c34,45 51,100 51,164 0,98 -37,175 -111,231 -74,55 -181,83 -322,83 -110,0 -200,-16 -271,-48 -71,-32 -107,-80 -107,-143 0,-28 6,-52 18,-73 12,-21 28,-37 46,-50 38,22 82,42 132,60 50,18 108,27 172,27 98,0 147,-28 147,-85 0,-24 -9,-43 -26,-57 -18,-14 -46,-24 -87,-31l-84 -20c-24,-5 -47,-11 -68,-17zm1707 -136l277 -22c0,8 -1,16 -1,24l10 139c12,74 43,126 94,158 51,31 112,47 181,47 57,0 110,-8 159,-24 50,-16 90,-33 121,-50 20,12 37,28 49,50 13,21 19,44 19,68 0,40 -15,74 -47,101 -31,27 -75,47 -131,60 -55,14 -119,20 -190,20 -103,0 -196,-19 -278,-58 -83,-39 -147,-97 -194,-175 -47,-78 -71,-175 -71,-292 0,-15 1,-31 2,-46zm313 -24l637 -51c1,15 2,30 2,45 0,41 -12,73 -34,94 -23,22 -55,35 -95,41l-640 94 -12 -201 142 -22zm1369 -109l292 -23c2,19 4,39 4,59l0 457c0,34 -9,61 -27,81 -17,21 -39,39 -66,54 -40,24 -90,43 -150,57 -59,14 -127,21 -204,21 -137,0 -246,-27 -327,-80 -81,-54 -121,-134 -121,-240 0,-91 28,-161 84,-210 56,-49 140,-79 251,-89l268 -28 0 -25c0,-12 -1,-23 -4,-34zm512 -40l398 -32c-27,10 -51,25 -72,46 -41,40 -62,103 -62,189 0,94 20,159 58,194 38,36 86,54 144,54 44,0 81,-8 110,-24 30,-15 55,-32 77,-51l8 237c-28,18 -63,33 -103,45 -40,12 -89,18 -147,18 -79,0 -152,-15 -220,-45 -68,-31 -122,-81 -163,-151 -41,-71 -61,-163 -61,-277 0,-77 11,-145 33,-203zm534 -43l367 -29c1,8 1,16 1,24l0 631 -288 0 0 -597c-14,-8 -32,-16 -53,-22 -8,-3 -17,-5 -27,-7zm601 -47l298 -24 0 398 -298 0 0 -374zm624 -50l297 -23c2,11 3,24 3,38l0 409 -300 0 0 -424zm679 -54l522 -41c6,3 11,6 17,9 69,37 123,86 162,150 39,63 58,136 58,219 0,41 -11,73 -34,94 -23,22 -54,35 -94,41l-640 94 -12 -201 499 -79c-3,-37 -19,-72 -49,-104 -29,-32 -73,-48 -130,-48 -61,0 -111,20 -151,61 -41,41 -62,99 -65,174l10 139c12,74 44,126 95,158 51,31 111,47 181,47 56,0 109,-8 159,-24 50,-16 90,-33 121,-50 20,12 36,28 49,50 13,21 19,44 19,68 0,40 -16,74 -47,101 -32,27 -75,47 -131,60 -56,14 -119,20 -190,20 -103,0 -196,-19 -279,-58 -82,-39 -147,-97 -194,-175 -47,-78 -70,-175 -70,-292 0,-86 14,-160 41,-223 27,-63 64,-115 111,-156 13,-12 28,-23 42,-34zm-3101 717c31,0 61,-3 92,-9 30,-6 52,-13 65,-21l0 -193 -169 16c-46,2 -82,12 -109,28 -26,16 -40,40 -40,72 0,33 13,58 38,78 26,19 67,29 123,29zm1283 181l0 -187 282 0 0 195c0,94 -22,170 -65,229 -44,59 -103,103 -177,131 -75,28 -158,42 -251,42 -69,0 -132,-6 -186,-18 -54,-12 -95,-27 -124,-46 -45,-30 -68,-71 -68,-125 0,-28 6,-53 17,-75 12,-22 25,-39 41,-49 37,21 80,39 129,55 50,15 102,23 157,23 75,0 135,-14 179,-41 44,-28 66,-72 66,-134zm515 -366l0 -145 298 0 0 143c0,62 16,106 47,133 32,26 76,40 134,40 36,0 67,-3 91,-10 24,-7 42,-14 54,-20l0 -286 300 0 0 322c0,32 -7,60 -19,82 -13,23 -34,43 -62,61 -43,27 -95,48 -158,63 -62,16 -131,23 -208,23 -95,0 -179,-14 -250,-42 -72,-28 -128,-72 -167,-132 -40,-59 -60,-137 -60,-232z"/>
     <path class="fil0" d="M6218 1108l0 479 -143 16c-50,0 -89,-15 -119,-44 -29,-30 -44,-69 -44,-119l0 -307 0 1 306 0 0 -26zm-143 495l0 -249 631 0c10,13 18,30 25,51 6,21 10,44 10,69 0,43 -10,75 -28,97 -19,21 -45,32 -79,32l-559 0z"/>
    </g>
    <path class="fil1" d="M1872 1453c-214,115 -474,144 -670,53l670 -53zm910 -72l230 245 -473 8 -186 -219 429 -34z"/>
   </g>
   <g>
    <g>
     <path class="fil0" d="M62 1578l244 -20 0 21c-12,4 -32,7 -59,11 -26,3 -54,5 -82,5 -44,0 -78,-6 -103,-17zm2985 -237l298 -24 0 262c-13,4 -32,7 -56,11 -24,3 -50,5 -79,5 -56,0 -97,-10 -123,-31 -26,-20 -40,-56 -40,-108l0 -115zm760 -60l284 -23c17,35 40,61 71,80 51,32 111,47 181,47 56,0 109,-8 159,-24 49,-16 90,-33 121,-50 20,12 36,29 49,50 13,22 19,45 19,69 0,40 -16,73 -47,100 -32,27 -75,47 -131,61 -56,13 -119,20 -190,20 -103,0 -196,-20 -279,-59 -82,-39 -147,-97 -194,-175 -18,-29 -32,-61 -43,-96zm1333 -106l510 -40c34,45 51,100 51,164 0,98 -37,175 -111,230 -74,56 -181,84 -322,84 -110,0 -200,-16 -271,-49 -71,-32 -107,-79 -107,-142 0,-29 6,-53 18,-74 12,-21 28,-37 46,-49 38,21 82,41 132,59 50,18 108,27 172,27 98,0 147,-28 147,-84 0,-24 -9,-43 -26,-57 -18,-15 -46,-25 -87,-32l-84 -20c-24,-5 -47,-10 -68,-17zm1707 -135l277 -22c0,8 -1,15 -1,23l10 139c12,74 43,127 94,158 51,32 112,47 181,47 57,0 110,-8 159,-24 50,-16 90,-33 121,-50 20,12 37,29 49,50 13,22 19,45 19,69 0,40 -15,73 -47,100 -31,27 -75,47 -131,61 -55,13 -119,20 -190,20 -103,0 -196,-20 -278,-59 -83,-39 -147,-97 -194,-175 -47,-77 -71,-175 -71,-291 0,-16 1,-31 2,-46zm313 -25l637 -50c1,14 2,29 2,44 0,42 -12,73 -34,95 -23,21 -55,35 -95,40l-640 95 -12 -202 142 -22zm1369 -108l292 -24c2,19 4,39 4,60l0 456c0,34 -9,61 -27,82 -17,21 -39,39 -66,53 -40,24 -90,44 -150,58 -59,14 -127,21 -204,21 -137,0 -246,-27 -327,-81 -81,-53 -121,-133 -121,-239 0,-91 28,-161 84,-210 56,-49 140,-79 251,-90l268 -28 0 -24c0,-12 -1,-24 -4,-34zm512 -41l398 -31c-27,10 -51,25 -72,46 -41,40 -62,103 -62,189 0,93 20,158 58,194 38,35 86,53 144,53 44,0 81,-8 110,-23 30,-16 55,-33 77,-51l8 237c-28,17 -63,32 -103,44 -40,12 -89,18 -147,18 -79,0 -152,-15 -220,-45 -68,-30 -122,-80 -163,-151 -41,-70 -61,-162 -61,-276 0,-77 11,-145 33,-204zm534 -42l367 -29c1,7 1,15 1,23l0 632 -288 0 0 -598c-14,-8 -32,-15 -53,-22 -8,-2 -17,-5 -27,-6zm601 -48l298 -24 0 398 -298 0 0 -374zm624 -49l297 -24c2,12 3,25 3,39l0 408 -300 0 0 -423zm679 -54l522 -42c6,3 11,6 17,9 69,37 123,87 162,150 39,63 58,136 58,219 0,42 -11,73 -34,95 -23,21 -54,35 -94,40l-640 95 -12 -202 499 -78c-3,-38 -19,-72 -49,-105 -29,-32 -73,-48 -130,-48 -61,0 -111,21 -151,61 -41,41 -62,99 -65,174l10 139c12,74 44,127 95,158 51,32 111,47 181,47 56,0 109,-8 159,-24 50,-16 90,-33 121,-50 20,12 36,29 49,50 13,22 19,45 19,69 0,40 -16,73 -47,100 -32,27 -75,47 -131,61 -56,13 -119,20 -190,20 -103,0 -196,-20 -279,-59 -82,-39 -147,-97 -194,-175 -47,-77 -70,-175 -70,-291 0,-86 14,-161 41,-224 27,-63 64,-115 111,-155 13,-13 28,-24 42,-34zm-3101 716c31,0 61,-3 92,-9 30,-6 52,-13 65,-21l0 -193 -169 16c-46,3 -82,12 -109,28 -26,16 -40,41 -40,73 0,32 13,58 38,77 26,20 67,29 123,29zm1283 181l0 -187 282 0 0 196c0,93 -22,170 -65,229 -44,59 -103,102 -177,131 -75,28 -158,42 -251,42 -69,0 -132,-6 -186,-18 -54,-12 -95,-28 -124,-47 -45,-29 -68,-71 -68,-124 0,-28 6,-54 17,-76 12,-22 25,-38 41,-49 37,21 80,40 129,55 50,16 102,23 157,23 75,0 135,-13 179,-41 44,-27 66,-72 66,-134zm515 -366l0 -144 298 0 0 142c0,62 16,106 47,133 32,27 76,40 134,40 36,0 67,-3 91,-10 24,-6 42,-13 54,-20l0 -285 300 0 0 321c0,33 -7,60 -19,83 -13,23 -34,43 -62,60 -43,27 -95,48 -158,64 -62,15 -131,23 -208,23 -95,0 -179,-14 -250,-43 -72,-28 -128,-72 -167,-131 -40,-60 -60,-137 -60,-233z"/>
     <path class="fil0" d="M6218 1090l0 478 -143 17c-50,0 -89,-15 -119,-45 -29,-29 -44,-69 -44,-118l0 -308 0 2 306 0 0 -26zm-143 495l0 -250 631 0c10,14 18,31 25,51 6,21 10,44 10,70 0,43 -10,75 -28,96 -19,22 -45,33 -79,33l-559 0z"/>
    </g>
    <path class="fil1" d="M1872 1434c-214,116 -474,144 -670,53l670 -53zm910 -72l230 246 -473 7 -186 -219 429 -34z"/>
   </g>
  </g>
 </g>
</svg>
